
=== Merge started at 2025-11-11 09:29:07.769797 ===
Chunks dir: meetings/19/chunks
Output file: meetings/19/final/merged_11-11-2025_09-29-07.wav
?? Merge failed: FFmpeg merge failed: Command '['ffmpeg', '-y', '-f', 'concat', '-safe', '0', '-i', 'meetings/19/chunks/list.txt', '-c', 'copy', 'meetings/19/final/merged_11-11-2025_09-29-07.wav']' returned non-zero exit status 1.
=== Merge ended at 2025-11-11 09:29:07.818941 ===

=== Merge started at 2025-11-11 09:29:50.603554 ===
Chunks dir: meetings/19/chunks
Output file: meetings/19/final/merged_11-11-2025_09-29-50.wav
?? Merge failed: FFmpeg merge failed: Command '['ffmpeg', '-y', '-f', 'concat', '-safe', '0', '-i', 'meetings/19/chunks/list.txt', '-c', 'copy', 'meetings/19/final/merged_11-11-2025_09-29-50.wav']' returned non-zero exit status 1.
=== Merge ended at 2025-11-11 09:29:50.651085 ===

=== Merge started at 2025-11-11 09:32:02.745775 ===
Chunks dir: meetings/19/chunks
Output file: meetings/19/final/merged_11-11-2025_09-32-02.wav
? Merge completed successfully!
Merged file: meetings/19/final/merged_11-11-2025_09-32-02.wav
=== Merge ended at 2025-11-11 09:32:02.855996 ===

=== Merge started at 2025-11-11 09:32:41.054956 ===
Chunks dir: meetings/19/chunks
Output file: meetings/19/final/merged_11-11-2025_09-32-41.wav
?? Merge failed: FFmpeg merge failed: Command '['ffmpeg', '-y', '-f', 'concat', '-safe', '0', '-i', 'meetings/19/chunks/list.txt', '-c', 'copy', 'meetings/19/final/merged_11-11-2025_09-32-41.wav']' returned non-zero exit status 1.
=== Merge ended at 2025-11-11 09:32:41.102692 ===

============================================================
Merge started at 2025-11-11T09:49:02.519183
Meeting ID: 19
Chunks dir: meetings/19/chunks
Output file: meetings/19/final/merged_11-11-2025_09-49-02.wav
============================================================
Found 13 audio chunks
? MERGE FAILED!
Error: FFmpeg merge failed:
ffmpeg version 4.2.7-0ubuntu0.1 Copyright (c) 2000-2022 the FFmpeg developers
  built with gcc 9 (Ubuntu 9.4.0-1ubuntu1~20.04.1)
  configuration: --prefix=/usr --extra-version=0ubuntu0.1 --toolchain=hardened --libdir=/usr/lib/x86_64-linux-gnu --incdir=/usr/include/x86_64-linux-gnu --arch=amd64 --enable-gpl --disable-stripping --enable-avresample --disable-filter=resample --enable-avisynth --enable-gnutls --enable-ladspa --enable-libaom --enable-libass --enable-libbluray --enable-libbs2b --enable-libcaca --enable-libcdio --enable-libcodec2 --enable-libflite --enable-libfontconfig --enable-libfreetype --enable-libfribidi --enable-libgme --enable-libgsm --enable-libjack --enable-libmp3lame --enable-libmysofa --enable-libopenjpeg --enable-libopenmpt --enable-libopus --enable-libpulse --enable-librsvg --enable-librubberband --enable-libshine --enable-libsnappy --enable-libsoxr --enable-libspeex --enable-libssh --enable-libtheora --enable-libtwolame --enable-libvidstab --enable-libvorbis --enable-libvpx --enable-libwavpack --enable-libwebp --enable-libx265 --enable-libxml2 --enable-libxvid --enable-libzmq --enable-libzvbi --enable-lv2 --enable-omx --enable-openal --enable-opencl --enable-opengl --enable-sdl2 --enable-libdc1394 --enable-libdrm --enable-libiec61883 --enable-nvenc --enable-chromaprint --enable-frei0r --enable-libx264 --enable-shared
  libavutil      56. 31.100 / 56. 31.100
  libavcodec     58. 54.100 / 58. 54.100
  libavformat    58. 29.100 / 58. 29.100
  libavdevice    58.  8.100 / 58.  8.100
  libavfilter     7. 57.100 /  7. 57.100
  libavresample   4.  0.  0 /  4.  0.  0
  libswscale      5.  5.100 /  5.  5.100
  libswresample   3.  5.100 /  3.  5.100
  libpostproc    55.  5.100 / 55.  5.100
Input #0, concat, from 'meetings/19/chunks/list.txt':
  Duration: N/A, start: 0.000000, bitrate: N/A
    Stream #0:0(eng): Audio: opus, 48000 Hz, mono, fltp
[wav @ 0x561aa78ed300] opus codec not supported in WAVE format
Could not write header for output file #0 (incorrect codec parameters ?): Function not implemented
Stream mapping:
  Stream #0:0 -> #0:0 (copy)
    Last message repeated 1 times

Exception type: RuntimeError
Traceback:
Traceback (most recent call last):
  File "/home/thuanld/cron-job/jobs.py", line 56, in enqueue_merge_job
    result_path = merge_audio_chunks(chunks_dir, merged_path)
  File "/home/thuanld/cron-job/utils.py", line 51, in merge_audio_chunks
    raise RuntimeError(f"FFmpeg merge failed:\n{result.stderr}")
RuntimeError: FFmpeg merge failed:
ffmpeg version 4.2.7-0ubuntu0.1 Copyright (c) 2000-2022 the FFmpeg developers
  built with gcc 9 (Ubuntu 9.4.0-1ubuntu1~20.04.1)
  configuration: --prefix=/usr --extra-version=0ubuntu0.1 --toolchain=hardened --libdir=/usr/lib/x86_64-linux-gnu --incdir=/usr/include/x86_64-linux-gnu --arch=amd64 --enable-gpl --disable-stripping --enable-avresample --disable-filter=resample --enable-avisynth --enable-gnutls --enable-ladspa --enable-libaom --enable-libass --enable-libbluray --enable-libbs2b --enable-libcaca --enable-libcdio --enable-libcodec2 --enable-libflite --enable-libfontconfig --enable-libfreetype --enable-libfribidi --enable-libgme --enable-libgsm --enable-libjack --enable-libmp3lame --enable-libmysofa --enable-libopenjpeg --enable-libopenmpt --enable-libopus --enable-libpulse --enable-librsvg --enable-librubberband --enable-libshine --enable-libsnappy --enable-libsoxr --enable-libspeex --enable-libssh --enable-libtheora --enable-libtwolame --enable-libvidstab --enable-libvorbis --enable-libvpx --enable-libwavpack --enable-libwebp --enable-libx265 --enable-libxml2 --enable-libxvid --enable-libzmq --enable-libzvbi --enable-lv2 --enable-omx --enable-openal --enable-opencl --enable-opengl --enable-sdl2 --enable-libdc1394 --enable-libdrm --enable-libiec61883 --enable-nvenc --enable-chromaprint --enable-frei0r --enable-libx264 --enable-shared
  libavutil      56. 31.100 / 56. 31.100
  libavcodec     58. 54.100 / 58. 54.100
  libavformat    58. 29.100 / 58. 29.100
  libavdevice    58.  8.100 / 58.  8.100
  libavfilter     7. 57.100 /  7. 57.100
  libavresample   4.  0.  0 /  4.  0.  0
  libswscale      5.  5.100 /  5.  5.100
  libswresample   3.  5.100 /  3.  5.100
  libpostproc    55.  5.100 / 55.  5.100
Input #0, concat, from 'meetings/19/chunks/list.txt':
  Duration: N/A, start: 0.000000, bitrate: N/A
    Stream #0:0(eng): Audio: opus, 48000 Hz, mono, fltp
[wav @ 0x561aa78ed300] opus codec not supported in WAVE format
Could not write header for output file #0 (incorrect codec parameters ?): Function not implemented
Stream mapping:
  Stream #0:0 -> #0:0 (copy)
    Last message repeated 1 times


Merge ended at 2025-11-11T09:49:02.569448
============================================================


=== Merge started at 2025-11-11 09:50:32.451931 ===
Chunks dir: meetings/19/chunks
Output file: meetings/19/final/merged_11-11-2025_09-50-32.wav
?? Merge failed: FFmpeg merge failed: Command '['ffmpeg', '-y', '-f', 'concat', '-safe', '0', '-i', 'meetings/19/chunks/list.txt', '-c', 'copy', 'meetings/19/final/merged_11-11-2025_09-50-32.wav']' returned non-zero exit status 1.
=== Merge ended at 2025-11-11 09:50:32.500167 ===

=== Merge started at 2025-11-11 09:55:07.273199 ===
Chunks dir: meetings/19/chunks
Output file: meetings/19/final/merged_11-11-2025_09-55-07.wav
?? Merge failed: FFmpeg merge failed: Command '['ffmpeg', '-y', '-f', 'concat', '-safe', '0', '-i', 'meetings/19/chunks/list.txt', '-c', 'copy', 'meetings/19/final/merged_11-11-2025_09-55-07.wav']' returned non-zero exit status 1.
=== Merge ended at 2025-11-11 09:55:07.321510 ===

=== Merge started at 2025-11-11 09:58:54.878004 ===
Chunks dir: meetings/19/chunks
Output file: meetings/19/final/merged_11-11-2025_09-58-54.wav
Merge failed: FFmpeg error: ffmpeg version 4.2.7-0ubuntu0.1 Copyright (c) 2000-2022 the FFmpeg developers
  built with gcc 9 (Ubuntu 9.4.0-1ubuntu1~20.04.1)
  configuration: --prefix=/usr --extra-version=0ubuntu0.1 --toolchain=hardened --libdir=/usr/lib/x86_64-linux-gnu --incdir=/usr/include/x86_64-linux-gnu --arch=amd64 --enable-gpl --disable-stripping --enable-avresample --disable-filter=resample --enable-avisynth --enable-gnutls --enable-ladspa --enable-libaom --enable-libass --enable-libbluray --enable-libbs2b --enable-libcaca --enable-libcdio --enable-libcodec2 --enable-libflite --enable-libfontconfig --enable-libfreetype --enable-libfribidi --enable-libgme --enable-libgsm --enable-libjack --enable-libmp3lame --enable-libmysofa --enable-libopenjpeg --enable-libopenmpt --enable-libopus --enable-libpulse --enable-librsvg --enable-librubberband --enable-libshine --enable-libsnappy --enable-libsoxr --enable-libspeex --enable-libssh --enable-libtheora --enable-libtwolame --enable-libvidstab --enable-libvorbis --enable-libvpx --enable-libwavpack --enable-libwebp --enable-libx265 --enable-libxml2 --enable-libxvid --enable-libzmq --enable-libzvbi --enable-lv2 --enable-omx --enable-openal --enable-opencl --enable-opengl --enable-sdl2 --enable-libdc1394 --enable-libdrm --enable-libiec61883 --enable-nvenc --enable-chromaprint --enable-frei0r --enable-libx264 --enable-shared
  libavutil      56. 31.100 / 56. 31.100
  libavcodec     58. 54.100 / 58. 54.100
  libavformat    58. 29.100 / 58. 29.100
  libavdevice    58.  8.100 / 58.  8.100
  libavfilter     7. 57.100 /  7. 57.100
  libavresample   4.  0.  0 /  4.  0.  0
  libswscale      5.  5.100 /  5.  5.100
  libswresample   3.  5.100 /  3.  5.100
  libpostproc    55.  5.100 / 55.  5.100
Input #0, concat, from 'meetings/19/chunks/list.txt':
  Duration: N/A, start: 0.000000, bitrate: N/A
    Stream #0:0(eng): Audio: opus, 48000 Hz, mono, fltp
[wav @ 0x559774271300] opus codec not supported in WAVE format
Could not write header for output file #0 (incorrect codec parameters ?): Function not implemented
Stream mapping:
  Stream #0:0 -> #0:0 (copy)
    Last message repeated 1 times

=== Merge ended at 2025-11-11 09:58:54.949603 ===

=== Merge started at 2025-11-11 10:01:09.757957 ===
Chunks dir: meetings/19/chunks
Output file: meetings/19/final/merged_11-11-2025_10-01-09.wav
Merge failed: FFmpeg error: ffmpeg version 4.2.7-0ubuntu0.1 Copyright (c) 2000-2022 the FFmpeg developers
  built with gcc 9 (Ubuntu 9.4.0-1ubuntu1~20.04.1)
  configuration: --prefix=/usr --extra-version=0ubuntu0.1 --toolchain=hardened --libdir=/usr/lib/x86_64-linux-gnu --incdir=/usr/include/x86_64-linux-gnu --arch=amd64 --enable-gpl --disable-stripping --enable-avresample --disable-filter=resample --enable-avisynth --enable-gnutls --enable-ladspa --enable-libaom --enable-libass --enable-libbluray --enable-libbs2b --enable-libcaca --enable-libcdio --enable-libcodec2 --enable-libflite --enable-libfontconfig --enable-libfreetype --enable-libfribidi --enable-libgme --enable-libgsm --enable-libjack --enable-libmp3lame --enable-libmysofa --enable-libopenjpeg --enable-libopenmpt --enable-libopus --enable-libpulse --enable-librsvg --enable-librubberband --enable-libshine --enable-libsnappy --enable-libsoxr --enable-libspeex --enable-libssh --enable-libtheora --enable-libtwolame --enable-libvidstab --enable-libvorbis --enable-libvpx --enable-libwavpack --enable-libwebp --enable-libx265 --enable-libxml2 --enable-libxvid --enable-libzmq --enable-libzvbi --enable-lv2 --enable-omx --enable-openal --enable-opencl --enable-opengl --enable-sdl2 --enable-libdc1394 --enable-libdrm --enable-libiec61883 --enable-nvenc --enable-chromaprint --enable-frei0r --enable-libx264 --enable-shared
  libavutil      56. 31.100 / 56. 31.100
  libavcodec     58. 54.100 / 58. 54.100
  libavformat    58. 29.100 / 58. 29.100
  libavdevice    58.  8.100 / 58.  8.100
  libavfilter     7. 57.100 /  7. 57.100
  libavresample   4.  0.  0 /  4.  0.  0
  libswscale      5.  5.100 /  5.  5.100
  libswresample   3.  5.100 /  3.  5.100
  libpostproc    55.  5.100 / 55.  5.100
Input #0, concat, from 'meetings/19/chunks/list.txt':
  Duration: N/A, start: 0.000000, bitrate: N/A
    Stream #0:0(eng): Audio: opus, 48000 Hz, mono, fltp
[wav @ 0x562d051c3340] opus codec not supported in WAVE format
Could not write header for output file #0 (incorrect codec parameters ?): Function not implemented
Stream mapping:
  Stream #0:0 -> #0:0 (copy)
    Last message repeated 1 times

=== Merge ended at 2025-11-11 10:01:09.808508 ===

=== Merge started at 2025-11-11 10:03:31.491961 ===
Chunks dir: meetings/19/chunks
Output file: meetings/19/final/merged_11-11-2025_10-03-31.wav
Merge completed successfully!
Merged file: meetings/19/final/merged_11-11-2025_10-03-31.wav
=== Merge ended at 2025-11-11 10:03:31.566904 ===

=== Merge started at 2025-11-11 10:07:43.217815 ===
Chunks dir: meetings/19/chunks
Output file: meetings/19/final/merged_11-11-2025_10-07-43.wav
Merge completed successfully!
Merged file: meetings/19/final/merged_11-11-2025_10-07-43.wav
=== Merge ended at 2025-11-11 10:07:43.373807 ===

=== Merge started at 2025-11-11 10:12:21.028490 ===
Chunks dir: meetings/19/chunks
Output file: meetings/19/final/merged_11-11-2025_10-12-21.wav
Merge failed: name 'merged_path' is not defined
=== Merge ended at 2025-11-11 10:12:21.028687 ===

=== Merge started at 2025-11-11 10:12:21.537815 ===
Chunks dir: meetings/19/chunks
Output file: meetings/19/final/merged_11-11-2025_10-12-21.wav
Merge failed: name 'merged_path' is not defined
=== Merge ended at 2025-11-11 10:12:21.538045 ===

=== Merge started at 2025-11-11 10:13:50.023338 ===
Chunks dir: meetings/19/chunks
Output file: meetings/19/final/merged_11-11-2025_10-13-50.wav
Merge completed successfully!
Merged file: meetings/19/final/merged_11-11-2025_10-13-50.wav
=== Merge ended at 2025-11-11 10:13:50.364478 ===

=== Merge started at 2025-11-11 10:15:26.494479 ===
Chunks dir: meetings/19/chunks
Output file: meetings/19/final/merged_11-11-2025_10-15-26.wav
Merge failed: name 'out_ogg' is not defined
=== Merge ended at 2025-11-11 10:15:26.494666 ===

=== Merge started at 2025-11-11 10:16:14.151715 ===
Chunks dir: meetings/19/chunks
Output file: meetings/19/final/merged_11-11-2025_10-16-14.wav
Merge completed successfully!
Merged file: meetings/19/final/merged_11-11-2025_10-16-14.wav
=== Merge ended at 2025-11-11 10:16:14.251879 ===

=== Merge started at 2025-11-11 10:18:29.249576 ===
Chunks dir: meetings/19/chunks
Output file: meetings/19/final/merged_11-11-2025_10-18-29.wav
Merge completed successfully!
Merged file: meetings/19/final/merged_11-11-2025_10-18-29.wav
=== Merge ended at 2025-11-11 10:18:29.405777 ===

=== Merge started at 2025-11-11 10:19:36.601747 ===
Chunks dir: meetings/19/chunks
Output file: meetings/19/final/merged_11-11-2025_10-19-36.wav
Merge completed successfully!
Merged file: meetings/19/final/merged_11-11-2025_10-19-36.wav
=== Merge ended at 2025-11-11 10:19:36.913785 ===

=== Merge started at 2025-11-12 07:46:54.591282 ===
Chunks dir: meetings/19/chunks
Output file: meetings/19/final/merged_12-11-2025_07-46-54.ogg
Merge completed successfully!
Merged file: meetings/19/final/merged_12-11-2025_07-46-54.ogg
=== Merge ended at 2025-11-12 07:46:54.929736 ===

=== Merge started at 2025-11-12 07:52:09.001808 ===
Chunks dir: meetings/19/chunks
Output file: meetings/19/final/merged_12-11-2025_07-52-09.ogg
Merge completed successfully!
Merged file: meetings/19/final/merged_12-11-2025_07-52-09.ogg
=== Merge ended at 2025-11-12 07:52:09.322906 ===

=== Merge started at 2025-11-12 07:59:40.699063 ===
Chunks dir: meetings/19/chunks
Output file: meetings/19/final/merged_12-11-2025_07-59-40.ogg
Merge completed successfully!
Merged file: meetings/19/final/merged_12-11-2025_07-59-40.ogg
No transcript cache entries found; skipping DOCX/PDF generation.
=== Merge ended at 2025-11-12 07:59:41.014511 ===

=== Merge started at 2025-11-12 08:18:14.708100 ===
Chunks dir: meetings/19/chunks
Output file: meetings/19/final/merged_12-11-2025_08-18-14.wav
Merge failed: FFmpeg error: ffmpeg version 4.2.7-0ubuntu0.1 Copyright (c) 2000-2022 the FFmpeg developers
  built with gcc 9 (Ubuntu 9.4.0-1ubuntu1~20.04.1)
  configuration: --prefix=/usr --extra-version=0ubuntu0.1 --toolchain=hardened --libdir=/usr/lib/x86_64-linux-gnu --incdir=/usr/include/x86_64-linux-gnu --arch=amd64 --enable-gpl --disable-stripping --enable-avresample --disable-filter=resample --enable-avisynth --enable-gnutls --enable-ladspa --enable-libaom --enable-libass --enable-libbluray --enable-libbs2b --enable-libcaca --enable-libcdio --enable-libcodec2 --enable-libflite --enable-libfontconfig --enable-libfreetype --enable-libfribidi --enable-libgme --enable-libgsm --enable-libjack --enable-libmp3lame --enable-libmysofa --enable-libopenjpeg --enable-libopenmpt --enable-libopus --enable-libpulse --enable-librsvg --enable-librubberband --enable-libshine --enable-libsnappy --enable-libsoxr --enable-libspeex --enable-libssh --enable-libtheora --enable-libtwolame --enable-libvidstab --enable-libvorbis --enable-libvpx --enable-libwavpack --enable-libwebp --enable-libx265 --enable-libxml2 --enable-libxvid --enable-libzmq --enable-libzvbi --enable-lv2 --enable-omx --enable-openal --enable-opencl --enable-opengl --enable-sdl2 --enable-libdc1394 --enable-libdrm --enable-libiec61883 --enable-nvenc --enable-chromaprint --enable-frei0r --enable-libx264 --enable-shared
  libavutil      56. 31.100 / 56. 31.100
  libavcodec     58. 54.100 / 58. 54.100
  libavformat    58. 29.100 / 58. 29.100
  libavdevice    58.  8.100 / 58.  8.100
  libavfilter     7. 57.100 /  7. 57.100
  libavresample   4.  0.  0 /  4.  0.  0
  libswscale      5.  5.100 /  5.  5.100
  libswresample   3.  5.100 /  3.  5.100
  libpostproc    55.  5.100 / 55.  5.100
[concat @ 0x55fcb0afb200] Impossible to open '/home/thuanld/cron-job/meetings/19/chunks/12-11-2025_15-12-16__1__d17856706f034654a33fb15e667f14fe.wav'
meetings/19/chunks/list.txt: Invalid data found when processing input

=== Merge ended at 2025-11-12 08:18:14.802373 ===
